<svg viewBox="0 0 560 350" width="100%" xmlns="http://www.w3.org/2000/svg" role="img" aria-label="Four-bar kinematic skeleton: four links numbered 1 to 4 and four revolute joints">
<rect data-bg="1" x="0" y="0" width="560" height="350" rx="8" fill="#ffffff" stroke="#e5e7eb" stroke-width="1"/>
<line x1="149.0" y1="236.9" x2="339.0" y2="236.9" stroke="#6b7280" stroke-width="3.0" stroke-dasharray="7 5" stroke-linecap="round"/>
<line x1="149.0" y1="236.9" x2="187.0" y2="171.1" stroke="#2563eb" stroke-width="3.0" stroke-linecap="round"/>
<line x1="187.0" y1="171.1" x2="403.4" y2="99.2" stroke="#d97706" stroke-width="3.0" stroke-linecap="round"/>
<line x1="339.0" y1="236.9" x2="403.4" y2="99.2" stroke="#059669" stroke-width="3.0" stroke-linecap="round"/>
<circle cx="149.0" cy="236.9" r="4.6" fill="#fff" stroke="#374151" stroke-width="2"/><path d="M 142.0 245.9 L 149.0 236.9 L 156.0 245.9 Z" fill="none" stroke="#374151" stroke-width="1.5"/><line x1="139.0" y1="245.9" x2="159.0" y2="245.9" stroke="#374151" stroke-width="1.5"/>
<circle cx="339.0" cy="236.9" r="4.6" fill="#fff" stroke="#374151" stroke-width="2"/><path d="M 332.0 245.9 L 339.0 236.9 L 346.0 245.9 Z" fill="none" stroke="#374151" stroke-width="1.5"/><line x1="329.0" y1="245.9" x2="349.0" y2="245.9" stroke="#374151" stroke-width="1.5"/>
<circle cx="187.0" cy="171.1" r="4.6" fill="#fff" stroke="#374151" stroke-width="2"/>
<circle cx="403.4" cy="99.2" r="4.6" fill="#fff" stroke="#374151" stroke-width="2"/>
<text x="127.0" y="228.9" fill="#374151" font-size="12.5" font-family="sans-serif" font-weight="700">R</text>
<text x="347.0" y="228.9" fill="#374151" font-size="12.5" font-family="sans-serif" font-weight="700">R</text>
<text x="167.0" y="165.1" fill="#374151" font-size="12.5" font-family="sans-serif" font-weight="700">R</text>
<text x="413.4" y="95.2" fill="#374151" font-size="12.5" font-family="sans-serif" font-weight="700">R</text>
<circle cx="244.0" cy="236.9" r="9.5" fill="#fff" stroke="#6b7280" stroke-width="2"/><text x="244.0" y="240.9" fill="#6b7280" font-size="12.5" font-family="sans-serif" font-weight="700" text-anchor="middle">1</text>
<circle cx="168.0" cy="204.0" r="9.5" fill="#fff" stroke="#2563eb" stroke-width="2"/><text x="168.0" y="208.0" fill="#2563eb" font-size="12.5" font-family="sans-serif" font-weight="700" text-anchor="middle">2</text>
<circle cx="295.2" cy="135.1" r="9.5" fill="#fff" stroke="#d97706" stroke-width="2"/><text x="295.2" y="139.1" fill="#d97706" font-size="12.5" font-family="sans-serif" font-weight="700" text-anchor="middle">3</text>
<circle cx="371.2" cy="168.0" r="9.5" fill="#fff" stroke="#059669" stroke-width="2"/><text x="371.2" y="172.0" fill="#059669" font-size="12.5" font-family="sans-serif" font-weight="700" text-anchor="middle">4</text>
<text x="46" y="344" fill="#6b7280" font-size="11.5" font-family="sans-serif">Four-bar: 4 links (1 = ground), 4 revolute (R) joints. DOF = 3(4-1) - 2(4) = 1.</text>
</svg>