<svg viewBox="0 0 570 303" width="100%" xmlns="http://www.w3.org/2000/svg" role="img" aria-label="Slider-crank kinematic skeleton: four links, three revolute joints and one prismatic slider joint">
<rect data-bg="1" x="0" y="0" width="570" height="303" rx="8" fill="#ffffff" stroke="#e5e7eb" stroke-width="1"/>
<line x1="83.0" y1="185.3" x2="490.8" y2="185.3" stroke="#6b7280" stroke-width="3.0" stroke-dasharray="7 5"/>
<line x1="113.4" y1="185.3" x2="160.9" y2="103.0" stroke="#2563eb" stroke-width="3.0" stroke-linecap="round"/>
<line x1="160.9" y1="103.0" x2="433.8" y2="185.3" stroke="#d97706" stroke-width="3.0" stroke-linecap="round"/>
<rect x="420.8" y="174.3" width="26" height="22" rx="3" fill="none" stroke="#059669" stroke-width="2.6"/>
<circle cx="113.4" cy="185.3" r="4.6" fill="#fff" stroke="#374151" stroke-width="2"/><path d="M 106.4 194.3 L 113.4 185.3 L 120.4 194.3 Z" fill="none" stroke="#374151" stroke-width="1.5"/><line x1="103.4" y1="194.3" x2="123.4" y2="194.3" stroke="#374151" stroke-width="1.5"/>
<circle cx="160.9" cy="103.0" r="4.6" fill="#fff" stroke="#374151" stroke-width="2"/>
<circle cx="433.8" cy="185.3" r="4.2" fill="#fff" stroke="#374151" stroke-width="2"/>
<text x="91.4" y="203.3" fill="#374151" font-size="12.5" font-family="sans-serif" font-weight="700">R</text>
<text x="140.9" y="97.0" fill="#374151" font-size="12.5" font-family="sans-serif" font-weight="700">R</text>
<text x="429.8" y="171.3" fill="#374151" font-size="12.5" font-family="sans-serif" font-weight="700">R</text>
<text x="451.8" y="190.3" fill="#374151" font-size="12.5" font-family="sans-serif" font-weight="700">P</text>
<circle cx="137.2" cy="144.1" r="9.5" fill="#fff" stroke="#2563eb" stroke-width="2"/><text x="137.2" y="148.1" fill="#2563eb" font-size="12.5" font-family="sans-serif" font-weight="700" text-anchor="middle">2</text>
<circle cx="297.4" cy="144.1" r="9.5" fill="#fff" stroke="#d97706" stroke-width="2"/><text x="297.4" y="148.1" fill="#d97706" font-size="12.5" font-family="sans-serif" font-weight="700" text-anchor="middle">3</text>
<circle cx="487.0" cy="185.3" r="9.5" fill="#fff" stroke="#059669" stroke-width="2"/><text x="487.0" y="189.3" fill="#059669" font-size="12.5" font-family="sans-serif" font-weight="700" text-anchor="middle">4</text>
<circle cx="285.0" cy="219.5" r="9.5" fill="#fff" stroke="#6b7280" stroke-width="2"/><text x="285.0" y="223.5" fill="#6b7280" font-size="12.5" font-family="sans-serif" font-weight="700" text-anchor="middle">1</text>
<text x="46" y="297" fill="#6b7280" font-size="11.5" font-family="sans-serif">Slider-crank: 4 links, 3 revolute (R) + 1 prismatic (P). DOF = 3(4-1) - 2(4) = 1.</text>
</svg>