<svg viewBox="0 0 548 544" width="100%" xmlns="http://www.w3.org/2000/svg" role="img" aria-label="Quick-return shaper: crank circle and the two extreme lever positions">
<rect data-bg="1" x="0" y="0" width="548" height="544" rx="8" fill="#ffffff" stroke="#e5e7eb" stroke-width="1"/>
<circle cx="274.0" cy="179.0" r="110.4" fill="none" stroke="#2563eb" stroke-width="2"/>
<line x1="274.0" y1="455.0" x2="274.0" y2="179.0" stroke="#9ca3af" stroke-width="1.4" stroke-dasharray="3 3" stroke-linecap="round"/>
<line x1="274.0" y1="455.0" x2="439.6" y2="75.5" stroke="#059669" stroke-width="2.6" stroke-linecap="round"/>
<line x1="274.0" y1="455.0" x2="108.4" y2="75.5" stroke="#059669" stroke-width="2.6" stroke-dasharray="7 5" stroke-linecap="round"/>
<line x1="439.6" y1="75.5" x2="108.4" y2="75.5" stroke="#059669" stroke-width="2.4" stroke-linecap="round"/>
<line x1="274.0" y1="179.0" x2="375.2" y2="223.1" stroke="#2563eb" stroke-width="2.0" stroke-linecap="round"/>
<line x1="274.0" y1="179.0" x2="172.8" y2="223.1" stroke="#2563eb" stroke-width="2.0" stroke-dasharray="4 3" stroke-linecap="round"/>
<circle cx="274.0" cy="455.0" r="4.5" fill="#fff" stroke="#374151" stroke-width="2"/><path d="M 267.0 464.0 L 274.0 455.0 L 281.0 464.0 Z" fill="none" stroke="#374151" stroke-width="1.5"/><line x1="264.0" y1="464.0" x2="284.0" y2="464.0" stroke="#374151" stroke-width="1.5"/>
<circle cx="274.0" cy="179.0" r="4.5" fill="#fff" stroke="#374151" stroke-width="2"/><path d="M 267.0 188.0 L 274.0 179.0 L 281.0 188.0 Z" fill="none" stroke="#374151" stroke-width="1.5"/><line x1="264.0" y1="188.0" x2="284.0" y2="188.0" stroke="#374151" stroke-width="1.5"/>
<circle cx="375.2" cy="223.1" r="3.5" fill="#2563eb"/>
<circle cx="172.8" cy="223.1" r="3.5" fill="#2563eb"/>
<text x="254.0" y="471.0" fill="#374151" font-size="14" font-family="sans-serif" font-weight="600">A</text>
<text x="282.0" y="183.0" fill="#374151" font-size="14" font-family="sans-serif" font-weight="600">C</text>
<text x="381.2" y="219.1" fill="#374151" font-size="14" font-family="sans-serif" font-weight="600">B<tspan baseline-shift="sub" font-size="70%">1</tspan></text>
<text x="142.8" y="219.1" fill="#374151" font-size="14" font-family="sans-serif" font-weight="600">B<tspan baseline-shift="sub" font-size="70%">2</tspan></text>
<text x="445.6" y="71.5" fill="#059669" font-size="14" font-family="sans-serif" font-weight="600">R<tspan baseline-shift="sub" font-size="70%">1</tspan></text>
<text x="78.4" y="71.5" fill="#059669" font-size="14" font-family="sans-serif" font-weight="600">R<tspan baseline-shift="sub" font-size="70%">2</tspan></text>
<text x="330.6" y="203.0" fill="#2563eb" font-size="14" font-family="sans-serif" font-weight="600">r</text>
<text x="280.0" y="319.0" fill="#9ca3af" font-size="12" font-family="sans-serif" font-weight="600">AC</text>
<text x="268.0" y="213.0" fill="#2563eb" font-size="15" font-family="sans-serif" font-weight="600">&#945;</text>
<text x="52" y="538" fill="#6b7280" font-size="11.5" font-family="sans-serif">Scale: 1 cm = 40 mm.  r = 120, AC = 300, AP = 450 mm;  swing 2&#966; = 47.2&#176;.</text>
</svg>