<svg viewBox="0 0 437 364" width="100%" xmlns="http://www.w3.org/2000/svg" role="img" aria-label="Four-bar space diagram at crank angle 120 degrees">
<rect data-bg="1" x="0" y="0" width="437" height="364" rx="8" fill="#ffffff" stroke="#e5e7eb" stroke-width="1"/>
<line x1="124.2" y1="270.3" x2="354.2" y2="270.3" stroke="#6b7280" stroke-width="2" stroke-dasharray="6 4" stroke-linecap="round"/>
<line x1="124.2" y1="270.3" x2="78.2" y2="190.6" stroke="#2563eb" stroke-width="2.6" stroke-linecap="round"/>
<line x1="78.2" y1="190.6" x2="334.2" y2="87.4" stroke="#d97706" stroke-width="2.6" stroke-linecap="round"/>
<line x1="354.2" y1="270.3" x2="334.2" y2="87.4" stroke="#059669" stroke-width="2.6" stroke-linecap="round"/>
<circle cx="124.2" cy="270.3" r="4.5" fill="#fff" stroke="#374151" stroke-width="2"/><path d="M 117.2 279.3 L 124.2 270.3 L 131.2 279.3 Z" fill="none" stroke="#374151" stroke-width="1.5"/><line x1="114.2" y1="279.3" x2="134.2" y2="279.3" stroke="#374151" stroke-width="1.5"/>
<circle cx="354.2" cy="270.3" r="4.5" fill="#fff" stroke="#374151" stroke-width="2"/><path d="M 347.2 279.3 L 354.2 270.3 L 361.2 279.3 Z" fill="none" stroke="#374151" stroke-width="1.5"/><line x1="344.2" y1="279.3" x2="364.2" y2="279.3" stroke="#374151" stroke-width="1.5"/>
<circle cx="78.2" cy="190.6" r="4.5" fill="#fff" stroke="#374151" stroke-width="2"/>
<circle cx="334.2" cy="87.4" r="4.5" fill="#fff" stroke="#374151" stroke-width="2"/>
<text x="87.2" y="232.5" fill="#2563eb" font-size="15" font-family="sans-serif" font-weight="600">a</text>
<text x="206.2" y="131.0" fill="#d97706" font-size="15" font-family="sans-serif" font-weight="600">b</text>
<text x="352.2" y="180.9" fill="#059669" font-size="15" font-family="sans-serif" font-weight="600">c</text>
<text x="235.2" y="288.3" fill="#6b7280" font-size="15" font-family="sans-serif" font-weight="600">d</text>
<text x="98.2" y="286.3" fill="#374151" font-size="15" font-family="sans-serif" font-weight="600">O<tspan baseline-shift="sub" font-size="70%">2</tspan></text>
<text x="360.2" y="286.3" fill="#374151" font-size="15" font-family="sans-serif" font-weight="600">O<tspan baseline-shift="sub" font-size="70%">4</tspan></text>
<text x="68.2" y="184.6" fill="#374151" font-size="15" font-family="sans-serif" font-weight="600">A</text>
<text x="342.2" y="81.4" fill="#374151" font-size="15" font-family="sans-serif" font-weight="600">B</text>
<text x="46" y="358" fill="#6b7280" font-size="11.5" font-family="sans-serif">Choose a length scale, e.g. 1 cm = 20 mm. a=40, b=120, c=80, d=100 mm, &#952;&#8322;=120&#176;.</text>
</svg>