<svg viewBox="0 0 560 546" width="100%" xmlns="http://www.w3.org/2000/svg" role="img" aria-label="Quick-return shaper at crank angle 300 degrees: crank CB, slotted lever A to P, sliding block at B">
<rect data-bg="1" x="0" y="0" width="560" height="546" rx="8" fill="#ffffff" stroke="#e5e7eb" stroke-width="1"/>
<circle cx="243.2" cy="187.3" r="108.0" fill="none" stroke="#9ca3af" stroke-width="1.4" stroke-dasharray="3 3"/>
<line x1="243.2" y1="457.3" x2="361.8" y2="70.0" stroke="#059669" stroke-width="5.0" stroke-linecap="round"/>
<line x1="243.2" y1="457.3" x2="361.8" y2="70.0" stroke="#ffffff" stroke-width="1.6" stroke-dasharray="2 5" stroke-linecap="round"/>
<line x1="243.2" y1="187.3" x2="297.2" y2="280.8" stroke="#2563eb" stroke-width="2.8" stroke-linecap="round"/>
<path d="M 291.9 270.7 L 307.4 275.4 L 302.6 290.9 L 287.1 286.2 Z" fill="#d97706" fill-opacity="0.25" stroke="#d97706" stroke-width="2"/>
<line x1="361.8" y1="70.0" x2="424.8" y2="70.0" stroke="#6b7280" stroke-width="2.0" stroke-linecap="round"/>
<rect x="424.8" y="57.0" width="26" height="26" rx="3" fill="none" stroke="#6b7280" stroke-width="2.2"/>
<line x1="418.8" y1="92.0" x2="456.8" y2="92.0" stroke="#6b7280" stroke-width="1.6" marker-start="url(#mg)" marker-end="url(#mg)"/>
<defs><marker id="mg" markerWidth="9" markerHeight="9" refX="4" refY="3" orient="auto"><path d="M8,0 L0,3 L8,6 Z" fill="#6b7280"/></marker></defs>
<circle cx="243.2" cy="457.3" r="4.5" fill="#fff" stroke="#374151" stroke-width="2"/><path d="M 236.2 466.3 L 243.2 457.3 L 250.2 466.3 Z" fill="none" stroke="#374151" stroke-width="1.5"/><line x1="233.2" y1="466.3" x2="253.2" y2="466.3" stroke="#374151" stroke-width="1.5"/>
<circle cx="243.2" cy="187.3" r="4.5" fill="#fff" stroke="#374151" stroke-width="2"/><path d="M 236.2 196.3 L 243.2 187.3 L 250.2 196.3 Z" fill="none" stroke="#374151" stroke-width="1.5"/><line x1="233.2" y1="196.3" x2="253.2" y2="196.3" stroke="#374151" stroke-width="1.5"/>
<circle cx="297.2" cy="280.8" r="3.6" fill="#374151"/>
<circle cx="361.8" cy="70.0" r="4" fill="#fff" stroke="#374151" stroke-width="2"/>
<text x="223.2" y="473.3" fill="#374151" font-size="14" font-family="sans-serif" font-weight="600">A</text>
<text x="251.2" y="191.3" fill="#374151" font-size="14" font-family="sans-serif" font-weight="600">C</text>
<text x="307.2" y="280.8" fill="#374151" font-size="14" font-family="sans-serif" font-weight="600">B</text>
<text x="355.8" y="62.0" fill="#374151" font-size="14" font-family="sans-serif" font-weight="600">P</text>
<text x="274.2" y="230.0" fill="#2563eb" font-size="12" font-family="sans-serif" font-weight="600">r</text>
<text x="426.8" y="104.0" fill="#6b7280" font-size="12" font-family="sans-serif" font-weight="600">ram</text>
<text x="52" y="540" fill="#6b7280" font-size="11.5" font-family="sans-serif">Block B slides in slot A-P; ram driven from P.  r = 120, AC = 300, AP = 450 mm.</text>
</svg>