<svg viewBox="0 0 593 402" width="100%" xmlns="http://www.w3.org/2000/svg" role="img" aria-label="Single-stage scissor lift at 30 degrees">
<rect data-bg="1" x="0" y="0" width="593" height="402" rx="8" fill="#ffffff" stroke="#e5e7eb" stroke-width="1"/>
<line x1="77.9" y1="310.4" x2="480.6" y2="310.4" stroke="#6b7280" stroke-width="3" stroke-linecap="round"/>
<line x1="77.9" y1="77.9" x2="480.6" y2="77.9" stroke="#059669" stroke-width="3" stroke-linecap="round"/>
<line x1="77.9" y1="310.4" x2="480.6" y2="77.9" stroke="#d97706" stroke-width="2.6" stroke-linecap="round"/>
<line x1="480.6" y1="310.4" x2="77.9" y2="77.9" stroke="#d97706" stroke-width="2.6" stroke-linecap="round"/>
<circle cx="77.9" cy="310.4" r="4" fill="#fff" stroke="#374151" stroke-width="2"/><path d="M 70.9 319.4 L 77.9 310.4 L 84.9 319.4 Z" fill="none" stroke="#374151" stroke-width="1.5"/><line x1="67.9" y1="319.4" x2="87.9" y2="319.4" stroke="#374151" stroke-width="1.5"/>
<circle cx="480.6" cy="310.4" r="4" fill="#fff" stroke="#374151" stroke-width="2"/>
<circle cx="77.9" cy="77.9" r="4" fill="#fff" stroke="#374151" stroke-width="2"/>
<circle cx="480.6" cy="77.9" r="4" fill="#fff" stroke="#374151" stroke-width="2"/>
<circle cx="279.3" cy="194.1" r="4" fill="#fff" stroke="#374151" stroke-width="2"/>
<line x1="520.9" y1="310.4" x2="520.9" y2="77.9" stroke="#374151" stroke-width="1"/>
<text x="524.9" y="198.1" fill="#374151" font-size="14" font-family="sans-serif" font-weight="600">h</text>
<text x="285.3" y="190.1" fill="#d97706" font-size="14" font-family="sans-serif" font-weight="600">L</text>
<text x="89.9" y="302.4" fill="#374151" font-size="14" font-family="sans-serif" font-weight="600">&#952;</text>
<text x="263.3" y="328.4" fill="#6b7280" font-size="12" font-family="sans-serif" font-weight="600">base</text>
<text x="257.3" y="67.9" fill="#059669" font-size="12" font-family="sans-serif" font-weight="600">platform</text>
<text x="50" y="396" fill="#6b7280" font-size="11.5" font-family="sans-serif">Choose a length scale, e.g. 1 cm = 40 mm. L = 300 mm, &#952; = 30&#176;, h = L sin&#952; = 150 mm.</text>
</svg>