<svg viewBox="0 0 516 271" width="100%" xmlns="http://www.w3.org/2000/svg" role="img" aria-label="Slider-crank velocity image of the connecting rod with the least-velocity point"><defs><marker id="m059669" markerWidth="10" markerHeight="10" refX="7.5" refY="3" orient="auto"><path d="M0,0 L8,3 L0,6 Z" fill="#059669"/></marker><marker id="m2563eb" markerWidth="10" markerHeight="10" refX="7.5" refY="3" orient="auto"><path d="M0,0 L8,3 L0,6 Z" fill="#2563eb"/></marker><marker id="md97706" markerWidth="10" markerHeight="10" refX="7.5" refY="3" orient="auto"><path d="M0,0 L8,3 L0,6 Z" fill="#d97706"/></marker></defs>
<rect data-bg="1" x="0" y="0" width="516" height="271" rx="8" fill="#ffffff" stroke="#e5e7eb" stroke-width="1"/>
<line x1="345.9" y1="174.0" x2="190.0" y2="84.0" stroke="#2563eb" stroke-width="2.6" marker-end="url(#m2563eb)" stroke-linecap="round"/>
<line x1="190.0" y1="84.0" x2="162.9" y2="174.0" stroke="#d97706" stroke-width="3.0" marker-end="url(#md97706)" stroke-linecap="round"/>
<line x1="345.9" y1="174.0" x2="162.9" y2="174.0" stroke="#059669" stroke-width="2.6" marker-end="url(#m059669)" stroke-linecap="round"/>
<line x1="345.9" y1="174.0" x2="176.5" y2="129.0" stroke="#9ca3af" stroke-width="1.5" stroke-dasharray="4 3" stroke-linecap="round"/>
<line x1="345.9" y1="174.0" x2="178.1" y2="123.4" stroke="#374151" stroke-width="1.5" stroke-dasharray="5 3" stroke-linecap="round"/>
<circle cx="345.9" cy="174.0" r="3.6" fill="#374151"/>
<circle cx="190.0" cy="84.0" r="3.6" fill="#374151"/>
<circle cx="162.9" cy="174.0" r="3.6" fill="#374151"/>
<circle cx="176.5" cy="129.0" r="3.6" fill="#d97706"/>
<circle cx="178.1" cy="123.4" r="3.6" fill="#374151"/>
<text x="339.9" y="191.0" fill="#374151" font-size="13.5" font-family="sans-serif" font-weight="600">o (pole)</text>
<text x="175.0" y="80.0" fill="#374151" font-size="13.5" font-family="sans-serif" font-weight="600">a</text>
<text x="158.9" y="191.0" fill="#374151" font-size="13.5" font-family="sans-serif" font-weight="600">b</text>
<text x="184.5" y="124.0" fill="#d97706" font-size="13.5" font-family="sans-serif" font-weight="600">g</text>
<text x="162.1" y="127.4" fill="#374151" font-size="13.5" font-family="sans-serif" font-weight="600">q</text>
<text x="250.0" y="131.0" fill="#2563eb" font-size="13" font-family="sans-serif" font-weight="600">v<tspan baseline-shift="sub" font-size="70%">A</tspan></text>
<text x="191.0" y="104.4" fill="#d97706" font-size="13" font-family="sans-serif" font-weight="600">v<tspan baseline-shift="sub" font-size="70%">B/A</tspan></text>
<text x="250.4" y="190.0" fill="#059669" font-size="13" font-family="sans-serif" font-weight="600">v<tspan baseline-shift="sub" font-size="70%">B</tspan></text>
<text x="48" y="265" fill="#6b7280" font-size="11" font-family="sans-serif">a b = rod velocity image; g = midpoint, q = least-velocity point (v &#8776; 48.7 mm/s).</text>
</svg>