<svg viewBox="0 0 560 535" width="100%" xmlns="http://www.w3.org/2000/svg" role="img" aria-label="Four-bar acceleration polygon: crank centripetal, coupler and follower normals from the pole, and the two tangentials meeting at b prime"><defs><marker id="m059669" markerWidth="10" markerHeight="10" refX="7.5" refY="3" orient="auto"><path d="M0,0 L8,3 L0,6 Z" fill="#059669"/></marker><marker id="m2563eb" markerWidth="10" markerHeight="10" refX="7.5" refY="3" orient="auto"><path d="M0,0 L8,3 L0,6 Z" fill="#2563eb"/></marker><marker id="m374151" markerWidth="10" markerHeight="10" refX="7.5" refY="3" orient="auto"><path d="M0,0 L8,3 L0,6 Z" fill="#374151"/></marker><marker id="md97706" markerWidth="10" markerHeight="10" refX="7.5" refY="3" orient="auto"><path d="M0,0 L8,3 L0,6 Z" fill="#d97706"/></marker></defs>
<rect data-bg="1" x="0" y="0" width="560" height="535" rx="8" fill="#ffffff" stroke="#e5e7eb" stroke-width="1"/>
<line x1="196.0" y1="138.0" x2="277.1" y2="278.1" stroke="#374151" stroke-width="1.6" stroke-dasharray="5 4" marker-end="url(#m374151)"/>
<line x1="196.0" y1="138.0" x2="336.0" y2="380.5" stroke="#2563eb" stroke-width="2.6" marker-end="url(#m2563eb)"/>
<line x1="336.0" y1="380.5" x2="320.8" y2="386.6" stroke="#d97706" stroke-width="2.6" marker-end="url(#md97706)"/>
<line x1="320.8" y1="386.6" x2="277.1" y2="278.1" stroke="#d97706" stroke-width="2.6" marker-end="url(#md97706)"/>
<line x1="196.0" y1="138.0" x2="212.1" y2="285.2" stroke="#059669" stroke-width="2.6" marker-end="url(#m059669)"/>
<line x1="212.1" y1="285.2" x2="277.1" y2="278.1" stroke="#059669" stroke-width="2.6" marker-end="url(#m059669)"/>
<circle cx="196.0" cy="138.0" r="3.4" fill="#374151"/>
<circle cx="336.0" cy="380.5" r="3.4" fill="#374151"/>
<circle cx="320.8" cy="386.6" r="3.4" fill="#d97706"/>
<circle cx="212.1" cy="285.2" r="3.4" fill="#059669"/>
<circle cx="277.1" cy="278.1" r="3.4" fill="#374151"/>
<text x="174.0" y="142.0" fill="#374151" font-size="13.5" font-family="sans-serif" font-weight="600">o&#8242;</text>
<text x="347.0" y="388.5" fill="#374151" font-size="13.5" font-family="sans-serif" font-weight="600">a&#8242;</text>
<text x="286.1" y="282.1" fill="#374151" font-size="13.5" font-family="sans-serif" font-weight="600">b&#8242;</text>
<text x="196.1" y="287.2" fill="#374151" font-size="13.5" font-family="sans-serif" font-weight="600">m</text>
<text x="306.8" y="398.6" fill="#d97706" font-size="13.5" font-family="sans-serif" font-weight="600">n</text>
<text x="240.0" y="257.2" fill="#2563eb" font-size="13" font-family="sans-serif" font-weight="600">a<tspan baseline-shift="sub" font-size="70%">A</tspan></text>
<text x="180.1" y="211.6" fill="#059669" font-size="12.5" font-family="sans-serif" font-weight="600">a<tspan baseline-shift="super" font-size="70%">n</tspan></text>
<text x="240.6" y="297.7" fill="#059669" font-size="12.5" font-family="sans-serif" font-weight="600">a<tspan baseline-shift="super" font-size="70%">t</tspan></text>
<text x="307.0" y="334.4" fill="#d97706" font-size="12.5" font-family="sans-serif" font-weight="600">a<tspan baseline-shift="super" font-size="70%">t</tspan></text>
<text x="308.4" y="389.5" fill="#d97706" font-size="12" font-family="sans-serif" font-weight="600">a<tspan baseline-shift="super" font-size="70%">n</tspan></text>
<text x="244.6" y="204.1" fill="#374151" font-size="12.5" font-family="sans-serif" font-weight="600">a<tspan baseline-shift="sub" font-size="70%">B</tspan></text>
<text x="54" y="529" fill="#6b7280" font-size="11.5" font-family="sans-serif">Coupler and follower normals from o&#8242;; the two tangentials meet at b&#8242;.  &#952;&#8322; = 120&#176;.</text>
</svg>