<svg viewBox="0 0 788 519" width="100%" xmlns="http://www.w3.org/2000/svg" role="img" aria-label="Quick-return acceleration polygon showing the Coriolis component"><defs><marker id="m059669" markerWidth="10" markerHeight="10" refX="7.5" refY="3" orient="auto"><path d="M0,0 L8,3 L0,6 Z" fill="#059669"/></marker><marker id="m2563eb" markerWidth="10" markerHeight="10" refX="7.5" refY="3" orient="auto"><path d="M0,0 L8,3 L0,6 Z" fill="#2563eb"/></marker><marker id="m6b7280" markerWidth="10" markerHeight="10" refX="7.5" refY="3" orient="auto"><path d="M0,0 L8,3 L0,6 Z" fill="#6b7280"/></marker><marker id="m7c3aed" markerWidth="10" markerHeight="10" refX="7.5" refY="3" orient="auto"><path d="M0,0 L8,3 L0,6 Z" fill="#7c3aed"/></marker></defs>
<rect data-bg="1" x="0" y="0" width="788" height="519" rx="8" fill="#ffffff" stroke="#e5e7eb" stroke-width="1"/>
<line x1="533.1" y1="377.1" x2="502.6" y2="477.0" stroke="#059669" stroke-width="2.6" marker-end="url(#m059669)"/>
<line x1="502.6" y1="477.0" x2="19.6" y2="329.2" stroke="#2563eb" stroke-width="2.6" marker-end="url(#m2563eb)"/>
<line x1="19.6" y1="329.2" x2="234.0" y2="394.8" stroke="#7c3aed" stroke-width="2.6" marker-end="url(#m7c3aed)"/>
<line x1="234.0" y1="394.8" x2="341.1" y2="44.6" stroke="#6b7280" stroke-width="2.6" marker-end="url(#m6b7280)"/>
<text x="533.2" y="431.8" fill="#059669" font-size="14" font-family="sans-serif" font-weight="600" text-anchor="middle" dominant-baseline="middle">a<tspan baseline-shift="super" font-size="70%">n</tspan></text>
<text x="256.4" y="418.4" fill="#2563eb" font-size="14" font-family="sans-serif" font-weight="600" text-anchor="middle" dominant-baseline="middle">a<tspan baseline-shift="super" font-size="70%">t</tspan></text>
<text x="122.1" y="377.3" fill="#7c3aed" font-size="14" font-family="sans-serif" font-weight="600" text-anchor="middle" dominant-baseline="middle">2&#969;v</text>
<text x="272.2" y="215.0" fill="#6b7280" font-size="14" font-family="sans-serif" font-weight="600" text-anchor="middle" dominant-baseline="middle">a<tspan baseline-shift="sub" font-size="70%">slip</tspan></text>
<circle cx="533.1" cy="377.1" r="3.4" fill="#374151"/>
<text x="548.6" y="381.1" fill="#374151" font-size="13.5" font-family="sans-serif" font-weight="700" text-anchor="middle" dominant-baseline="middle">o&#39;</text>
<circle cx="502.6" cy="477.0" r="3.4" fill="#374151"/>
<circle cx="19.6" cy="329.2" r="3.4" fill="#374151"/>
<circle cx="234.0" cy="394.8" r="3.4" fill="#374151"/>
<circle cx="341.1" cy="44.6" r="3.4" fill="#374151"/>
<text x="342.0" y="28.6" fill="#374151" font-size="13.5" font-family="sans-serif" font-weight="700" text-anchor="middle" dominant-baseline="middle">b<tspan baseline-shift="sub" font-size="70%">2</tspan>&#39;</text>
<text x="12" y="512" fill="#6b7280" font-size="11.5" font-family="sans-serif">Coriolis term 2&#969;v = 70 mm/s&#178; (purple). The chain a&#8319; + a&#7511; + Coriolis + a(slip) closes on the crank point acceleration.</text>
</svg>