<svg viewBox="0 0 470 316" width="100%" xmlns="http://www.w3.org/2000/svg" role="img" aria-label="Shaking force against crank angle: the primary component completes one cycle per revolution, the secondary completes two, and their sum peaks higher at top dead centre than at bottom dead centre">
<rect data-bg="1" x="0" y="0" width="470" height="316" rx="8" fill="#ffffff" stroke="#e5e7eb" stroke-width="1"/>
<rect x="54" y="42" width="400" height="212" fill="none" stroke="#9ca3af" stroke-width="1"/>
<line x1="54.0" y1="254" x2="54.0" y2="258" stroke="#9ca3af" stroke-width="1"/>
<text x="54.0" y="270" fill="#6b7280" font-size="10.5" font-family="sans-serif" text-anchor="middle">0</text>
<line x1="134.0" y1="254" x2="134.0" y2="258" stroke="#9ca3af" stroke-width="1"/>
<line x1="134.0" y1="42" x2="134.0" y2="254" stroke="#9ca3af" stroke-width="0.5" stroke-dasharray="2 4"/>
<text x="134.0" y="270" fill="#6b7280" font-size="10.5" font-family="sans-serif" text-anchor="middle">72</text>
<line x1="214.0" y1="254" x2="214.0" y2="258" stroke="#9ca3af" stroke-width="1"/>
<line x1="214.0" y1="42" x2="214.0" y2="254" stroke="#9ca3af" stroke-width="0.5" stroke-dasharray="2 4"/>
<text x="214.0" y="270" fill="#6b7280" font-size="10.5" font-family="sans-serif" text-anchor="middle">144</text>
<line x1="294.0" y1="254" x2="294.0" y2="258" stroke="#9ca3af" stroke-width="1"/>
<line x1="294.0" y1="42" x2="294.0" y2="254" stroke="#9ca3af" stroke-width="0.5" stroke-dasharray="2 4"/>
<text x="294.0" y="270" fill="#6b7280" font-size="10.5" font-family="sans-serif" text-anchor="middle">216</text>
<line x1="374.0" y1="254" x2="374.0" y2="258" stroke="#9ca3af" stroke-width="1"/>
<line x1="374.0" y1="42" x2="374.0" y2="254" stroke="#9ca3af" stroke-width="0.5" stroke-dasharray="2 4"/>
<text x="374.0" y="270" fill="#6b7280" font-size="10.5" font-family="sans-serif" text-anchor="middle">288</text>
<line x1="454.0" y1="254" x2="454.0" y2="258" stroke="#9ca3af" stroke-width="1"/>
<line x1="454.0" y1="42" x2="454.0" y2="254" stroke="#9ca3af" stroke-width="0.5" stroke-dasharray="2 4"/>
<text x="454.0" y="270" fill="#6b7280" font-size="10.5" font-family="sans-serif" text-anchor="middle">360</text>
<line x1="50" y1="254.0" x2="54" y2="254.0" stroke="#9ca3af" stroke-width="1"/>
<text x="47" y="257.5" fill="#6b7280" font-size="10.5" font-family="sans-serif" text-anchor="end">-1.25</text>
<line x1="50" y1="201.0" x2="54" y2="201.0" stroke="#9ca3af" stroke-width="1"/>
<text x="47" y="204.5" fill="#6b7280" font-size="10.5" font-family="sans-serif" text-anchor="end">-0.55</text>
<line x1="50" y1="148.0" x2="54" y2="148.0" stroke="#9ca3af" stroke-width="1"/>
<text x="47" y="151.5" fill="#6b7280" font-size="10.5" font-family="sans-serif" text-anchor="end">0.15</text>
<line x1="50" y1="95.0" x2="54" y2="95.0" stroke="#9ca3af" stroke-width="1"/>
<text x="47" y="98.5" fill="#6b7280" font-size="10.5" font-family="sans-serif" text-anchor="end">0.85</text>
<line x1="50" y1="42.0" x2="54" y2="42.0" stroke="#9ca3af" stroke-width="1"/>
<text x="47" y="45.5" fill="#6b7280" font-size="10.5" font-family="sans-serif" text-anchor="end">1.55</text>
<line x1="54" y1="159.4" x2="454" y2="159.4" stroke="#9ca3af" stroke-width="1" stroke-dasharray="3 3"/>
<polyline points="54.0,58.4 55.1,58.4 56.2,58.5 57.3,58.6 58.4,58.8 59.6,59.1 60.7,59.4 61.8,59.7 62.9,60.1 64.0,60.6 65.1,61.1 66.2,61.6 67.3,62.2 68.4,62.9 69.6,63.6 70.7,64.4 71.8,65.2 72.9,66.0 74.0,66.9 75.1,67.9 76.2,68.9 77.3,69.9 78.4,71.0 79.6,72.1 80.7,73.3 81.8,74.5 82.9,75.8 84.0,77.1 85.1,78.4 86.2,79.8 87.3,81.2 88.4,82.6 89.6,84.1 90.7,85.6 91.8,87.1 92.9,88.7 94.0,90.3 95.1,91.9 96.2,93.6 97.3,95.3 98.4,97.0 99.6,98.7 100.7,100.5 101.8,102.2 102.9,104.0 104.0,105.8 105.1,107.6 106.2,109.5 107.3,111.3 108.4,113.2 109.6,115.1 110.7,117.0 111.8,118.8 112.9,120.7 114.0,122.7 115.1,124.6 116.2,126.5 117.3,128.4 118.4,130.3 119.6,132.2 120.7,134.1 121.8,136.0 122.9,137.9 124.0,139.8 125.1,141.7 126.2,143.6 127.3,145.4 128.4,147.3 129.6,149.1 130.7,151.0 131.8,152.8 132.9,154.6 134.0,156.4 135.1,158.1 136.2,159.9 137.3,161.6 138.4,163.3 139.6,165.0 140.7,166.7 141.8,168.3 142.9,169.9 144.0,171.5 145.1,173.1 146.2,174.6 147.3,176.1 148.4,177.6 149.6,179.1 150.7,180.5 151.8,181.9 152.9,183.3 154.0,184.6 155.1,185.9 156.2,187.2 157.3,188.4 158.4,189.6 159.6,190.8 160.7,192.0 161.8,193.1 162.9,194.2 164.0,195.2 165.1,196.2 166.2,197.2 167.3,198.2 168.4,199.1 169.6,200.0 170.7,200.8 171.8,201.6 172.9,202.4 174.0,203.2 175.1,203.9 176.2,204.6 177.3,205.2 178.4,205.9 179.6,206.5 180.7,207.0 181.8,207.6 182.9,208.1 184.0,208.6 185.1,209.0 186.2,209.4 187.3,209.8 188.4,210.2 189.6,210.5 190.7,210.9 191.8,211.2 192.9,211.4 194.0,211.7 195.1,211.9 196.2,212.1 197.3,212.3 198.4,212.4 199.6,212.5 200.7,212.7 201.8,212.8 202.9,212.8 204.0,212.9 205.1,212.9 206.2,213.0 207.3,213.0 208.4,213.0 209.6,213.0 210.7,213.0 211.8,212.9 212.9,212.9 214.0,212.8 215.1,212.7 216.2,212.7 217.3,212.6 218.4,212.5 219.6,212.4 220.7,212.3 221.8,212.2 222.9,212.1 224.0,212.0 225.1,211.9 226.2,211.8 227.3,211.6 228.4,211.5 229.6,211.4 230.7,211.3 231.8,211.2 232.9,211.1 234.0,210.9 235.1,210.8 236.2,210.7 237.3,210.6 238.4,210.5 239.6,210.4 240.7,210.4 241.8,210.3 242.9,210.2 244.0,210.1 245.1,210.1 246.2,210.0 247.3,210.0 248.4,209.9 249.6,209.9 250.7,209.9 251.8,209.8 252.9,209.8 254.0,209.8 255.1,209.8 256.2,209.8 257.3,209.9 258.4,209.9 259.6,209.9 260.7,210.0 261.8,210.0 262.9,210.1 264.0,210.1 265.1,210.2 266.2,210.3 267.3,210.4 268.4,210.4 269.6,210.5 270.7,210.6 271.8,210.7 272.9,210.8 274.0,210.9 275.1,211.1 276.2,211.2 277.3,211.3 278.4,211.4 279.6,211.5 280.7,211.6 281.8,211.8 282.9,211.9 284.0,212.0 285.1,212.1 286.2,212.2 287.3,212.3 288.4,212.4 289.6,212.5 290.7,212.6 291.8,212.7 292.9,212.7 294.0,212.8 295.1,212.9 296.2,212.9 297.3,213.0 298.4,213.0 299.6,213.0 300.7,213.0 301.8,213.0 302.9,212.9 304.0,212.9 305.1,212.8 306.2,212.8 307.3,212.7 308.4,212.5 309.6,212.4 310.7,212.3 311.8,212.1 312.9,211.9 314.0,211.7 315.1,211.4 316.2,211.2 317.3,210.9 318.4,210.5 319.6,210.2 320.7,209.8 321.8,209.4 322.9,209.0 324.0,208.6 325.1,208.1 326.2,207.6 327.3,207.0 328.4,206.5 329.6,205.9 330.7,205.2 331.8,204.6 332.9,203.9 334.0,203.2 335.1,202.4 336.2,201.6 337.3,200.8 338.4,200.0 339.6,199.1 340.7,198.2 341.8,197.2 342.9,196.2 344.0,195.2 345.1,194.2 346.2,193.1 347.3,192.0 348.4,190.8 349.6,189.6 350.7,188.4 351.8,187.2 352.9,185.9 354.0,184.6 355.1,183.3 356.2,181.9 357.3,180.5 358.4,179.1 359.6,177.6 360.7,176.1 361.8,174.6 362.9,173.1 364.0,171.5 365.1,169.9 366.2,168.3 367.3,166.7 368.4,165.0 369.6,163.3 370.7,161.6 371.8,159.9 372.9,158.1 374.0,156.4 375.1,154.6 376.2,152.8 377.3,151.0 378.4,149.1 379.6,147.3 380.7,145.4 381.8,143.6 382.9,141.7 384.0,139.8 385.1,137.9 386.2,136.0 387.3,134.1 388.4,132.2 389.6,130.3 390.7,128.4 391.8,126.5 392.9,124.6 394.0,122.7 395.1,120.7 396.2,118.8 397.3,117.0 398.4,115.1 399.6,113.2 400.7,111.3 401.8,109.5 402.9,107.6 404.0,105.8 405.1,104.0 406.2,102.2 407.3,100.5 408.4,98.7 409.6,97.0 410.7,95.3 411.8,93.6 412.9,91.9 414.0,90.3 415.1,88.7 416.2,87.1 417.3,85.6 418.4,84.1 419.6,82.6 420.7,81.2 421.8,79.8 422.9,78.4 424.0,77.1 425.1,75.8 426.2,74.5 427.3,73.3 428.4,72.1 429.6,71.0 430.7,69.9 431.8,68.9 432.9,67.9 434.0,66.9 435.1,66.0 436.2,65.2 437.3,64.4 438.4,63.6 439.6,62.9 440.7,62.2 441.8,61.6 442.9,61.1 444.0,60.6 445.1,60.1 446.2,59.7 447.3,59.4 448.4,59.1 449.6,58.8 450.7,58.6 451.8,58.5 452.9,58.4 454.0,58.4" fill="none" stroke="#374151" stroke-width="2.4"/>
<polyline points="54.0,83.6 55.1,83.7 56.2,83.7 57.3,83.7 58.4,83.8 59.6,83.9 60.7,84.1 61.8,84.2 62.9,84.4 64.0,84.6 65.1,84.8 66.2,85.0 67.3,85.3 68.4,85.6 69.6,85.9 70.7,86.2 71.8,86.6 72.9,87.0 74.0,87.3 75.1,87.8 76.2,88.2 77.3,88.7 78.4,89.2 79.6,89.7 80.7,90.2 81.8,90.7 82.9,91.3 84.0,91.9 85.1,92.5 86.2,93.1 87.3,93.8 88.4,94.5 89.6,95.1 90.7,95.9 91.8,96.6 92.9,97.3 94.0,98.1 95.1,98.9 96.2,99.7 97.3,100.5 98.4,101.4 99.6,102.2 100.7,103.1 101.8,104.0 102.9,104.9 104.0,105.8 105.1,106.8 106.2,107.7 107.3,108.7 108.4,109.7 109.6,110.7 110.7,111.7 111.8,112.7 112.9,113.8 114.0,114.9 115.1,115.9 116.2,117.0 117.3,118.1 118.4,119.2 119.6,120.4 120.7,121.5 121.8,122.7 122.9,123.8 124.0,125.0 125.1,126.2 126.2,127.4 127.3,128.6 128.4,129.8 129.6,131.0 130.7,132.2 131.8,133.5 132.9,134.7 134.0,136.0 135.1,137.2 136.2,138.5 137.3,139.8 138.4,141.0 139.6,142.3 140.7,143.6 141.8,144.9 142.9,146.2 144.0,147.5 145.1,148.8 146.2,150.1 147.3,151.4 148.4,152.8 149.6,154.1 150.7,155.4 151.8,156.7 152.9,158.0 154.0,159.4 155.1,160.7 156.2,162.0 157.3,163.3 158.4,164.6 159.6,166.0 160.7,167.3 161.8,168.6 162.9,169.9 164.0,171.2 165.1,172.5 166.2,173.8 167.3,175.1 168.4,176.4 169.6,177.7 170.7,179.0 171.8,180.2 172.9,181.5 174.0,182.8 175.1,184.0 176.2,185.3 177.3,186.5 178.4,187.7 179.6,188.9 180.7,190.2 181.8,191.4 182.9,192.5 184.0,193.7 185.1,194.9 186.2,196.1 187.3,197.2 188.4,198.4 189.6,199.5 190.7,200.6 191.8,201.7 192.9,202.8 194.0,203.9 195.1,204.9 196.2,206.0 197.3,207.0 198.4,208.0 199.6,209.0 200.7,210.0 201.8,211.0 202.9,212.0 204.0,212.9 205.1,213.8 206.2,214.7 207.3,215.6 208.4,216.5 209.6,217.4 210.7,218.2 211.8,219.0 212.9,219.8 214.0,220.6 215.1,221.4 216.2,222.1 217.3,222.9 218.4,223.6 219.6,224.3 220.7,224.9 221.8,225.6 222.9,226.2 224.0,226.8 225.1,227.4 226.2,228.0 227.3,228.5 228.4,229.1 229.6,229.6 230.7,230.0 231.8,230.5 232.9,230.9 234.0,231.4 235.1,231.8 236.2,232.1 237.3,232.5 238.4,232.8 239.6,233.1 240.7,233.4 241.8,233.7 242.9,233.9 244.0,234.1 245.1,234.3 246.2,234.5 247.3,234.7 248.4,234.8 249.6,234.9 250.7,235.0 251.8,235.0 252.9,235.1 254.0,235.1 255.1,235.1 256.2,235.0 257.3,235.0 258.4,234.9 259.6,234.8 260.7,234.7 261.8,234.5 262.9,234.3 264.0,234.1 265.1,233.9 266.2,233.7 267.3,233.4 268.4,233.1 269.6,232.8 270.7,232.5 271.8,232.1 272.9,231.8 274.0,231.4 275.1,230.9 276.2,230.5 277.3,230.0 278.4,229.6 279.6,229.1 280.7,228.5 281.8,228.0 282.9,227.4 284.0,226.8 285.1,226.2 286.2,225.6 287.3,224.9 288.4,224.3 289.6,223.6 290.7,222.9 291.8,222.1 292.9,221.4 294.0,220.6 295.1,219.8 296.2,219.0 297.3,218.2 298.4,217.4 299.6,216.5 300.7,215.6 301.8,214.7 302.9,213.8 304.0,212.9 305.1,212.0 306.2,211.0 307.3,210.0 308.4,209.0 309.6,208.0 310.7,207.0 311.8,206.0 312.9,204.9 314.0,203.9 315.1,202.8 316.2,201.7 317.3,200.6 318.4,199.5 319.6,198.4 320.7,197.2 321.8,196.1 322.9,194.9 324.0,193.7 325.1,192.5 326.2,191.4 327.3,190.2 328.4,188.9 329.6,187.7 330.7,186.5 331.8,185.3 332.9,184.0 334.0,182.8 335.1,181.5 336.2,180.2 337.3,179.0 338.4,177.7 339.6,176.4 340.7,175.1 341.8,173.8 342.9,172.5 344.0,171.2 345.1,169.9 346.2,168.6 347.3,167.3 348.4,166.0 349.6,164.6 350.7,163.3 351.8,162.0 352.9,160.7 354.0,159.4 355.1,158.0 356.2,156.7 357.3,155.4 358.4,154.1 359.6,152.8 360.7,151.4 361.8,150.1 362.9,148.8 364.0,147.5 365.1,146.2 366.2,144.9 367.3,143.6 368.4,142.3 369.6,141.0 370.7,139.8 371.8,138.5 372.9,137.2 374.0,136.0 375.1,134.7 376.2,133.5 377.3,132.2 378.4,131.0 379.6,129.8 380.7,128.6 381.8,127.4 382.9,126.2 384.0,125.0 385.1,123.8 386.2,122.7 387.3,121.5 388.4,120.4 389.6,119.2 390.7,118.1 391.8,117.0 392.9,115.9 394.0,114.9 395.1,113.8 396.2,112.7 397.3,111.7 398.4,110.7 399.6,109.7 400.7,108.7 401.8,107.7 402.9,106.8 404.0,105.8 405.1,104.9 406.2,104.0 407.3,103.1 408.4,102.2 409.6,101.4 410.7,100.5 411.8,99.7 412.9,98.9 414.0,98.1 415.1,97.3 416.2,96.6 417.3,95.9 418.4,95.1 419.6,94.5 420.7,93.8 421.8,93.1 422.9,92.5 424.0,91.9 425.1,91.3 426.2,90.7 427.3,90.2 428.4,89.7 429.6,89.2 430.7,88.7 431.8,88.2 432.9,87.8 434.0,87.3 435.1,87.0 436.2,86.6 437.3,86.2 438.4,85.9 439.6,85.6 440.7,85.3 441.8,85.0 442.9,84.8 444.0,84.6 445.1,84.4 446.2,84.2 447.3,84.1 448.4,83.9 449.6,83.8 450.7,83.7 451.8,83.7 452.9,83.7 454.0,83.6" fill="none" stroke="#2563eb" stroke-width="2.4"/>
<polyline points="54.0,134.1 55.1,134.1 56.2,134.2 57.3,134.3 58.4,134.4 59.6,134.5 60.7,134.7 61.8,134.9 62.9,135.1 64.0,135.4 65.1,135.6 66.2,136.0 67.3,136.3 68.4,136.7 69.6,137.1 70.7,137.5 71.8,138.0 72.9,138.4 74.0,138.9 75.1,139.5 76.2,140.0 77.3,140.6 78.4,141.2 79.6,141.8 80.7,142.5 81.8,143.1 82.9,143.8 84.0,144.5 85.1,145.2 86.2,146.0 87.3,146.7 88.4,147.5 89.6,148.3 90.7,149.1 91.8,149.9 92.9,150.7 94.0,151.6 95.1,152.4 96.2,153.3 97.3,154.1 98.4,155.0 99.6,155.8 100.7,156.7 101.8,157.6 102.9,158.5 104.0,159.4 105.1,160.2 106.2,161.1 107.3,162.0 108.4,162.9 109.6,163.7 110.7,164.6 111.8,165.5 112.9,166.3 114.0,167.2 115.1,168.0 116.2,168.8 117.3,169.6 118.4,170.4 119.6,171.2 120.7,172.0 121.8,172.7 122.9,173.5 124.0,174.2 125.1,174.9 126.2,175.6 127.3,176.2 128.4,176.9 129.6,177.5 130.7,178.1 131.8,178.7 132.9,179.2 134.0,179.8 135.1,180.3 136.2,180.8 137.3,181.2 138.4,181.6 139.6,182.0 140.7,182.4 141.8,182.8 142.9,183.1 144.0,183.4 145.1,183.6 146.2,183.8 147.3,184.0 148.4,184.2 149.6,184.3 150.7,184.5 151.8,184.5 152.9,184.6 154.0,184.6 155.1,184.6 156.2,184.5 157.3,184.5 158.4,184.3 159.6,184.2 160.7,184.0 161.8,183.8 162.9,183.6 164.0,183.4 165.1,183.1 166.2,182.8 167.3,182.4 168.4,182.0 169.6,181.6 170.7,181.2 171.8,180.8 172.9,180.3 174.0,179.8 175.1,179.2 176.2,178.7 177.3,178.1 178.4,177.5 179.6,176.9 180.7,176.2 181.8,175.6 182.9,174.9 184.0,174.2 185.1,173.5 186.2,172.7 187.3,172.0 188.4,171.2 189.6,170.4 190.7,169.6 191.8,168.8 192.9,168.0 194.0,167.2 195.1,166.3 196.2,165.5 197.3,164.6 198.4,163.7 199.6,162.9 200.7,162.0 201.8,161.1 202.9,160.2 204.0,159.4 205.1,158.5 206.2,157.6 207.3,156.7 208.4,155.8 209.6,155.0 210.7,154.1 211.8,153.3 212.9,152.4 214.0,151.6 215.1,150.7 216.2,149.9 217.3,149.1 218.4,148.3 219.6,147.5 220.7,146.7 221.8,146.0 222.9,145.2 224.0,144.5 225.1,143.8 226.2,143.1 227.3,142.5 228.4,141.8 229.6,141.2 230.7,140.6 231.8,140.0 232.9,139.5 234.0,138.9 235.1,138.4 236.2,138.0 237.3,137.5 238.4,137.1 239.6,136.7 240.7,136.3 241.8,136.0 242.9,135.6 244.0,135.4 245.1,135.1 246.2,134.9 247.3,134.7 248.4,134.5 249.6,134.4 250.7,134.3 251.8,134.2 252.9,134.1 254.0,134.1 255.1,134.1 256.2,134.2 257.3,134.3 258.4,134.4 259.6,134.5 260.7,134.7 261.8,134.9 262.9,135.1 264.0,135.4 265.1,135.6 266.2,136.0 267.3,136.3 268.4,136.7 269.6,137.1 270.7,137.5 271.8,138.0 272.9,138.4 274.0,138.9 275.1,139.5 276.2,140.0 277.3,140.6 278.4,141.2 279.6,141.8 280.7,142.5 281.8,143.1 282.9,143.8 284.0,144.5 285.1,145.2 286.2,146.0 287.3,146.7 288.4,147.5 289.6,148.3 290.7,149.1 291.8,149.9 292.9,150.7 294.0,151.6 295.1,152.4 296.2,153.3 297.3,154.1 298.4,155.0 299.6,155.8 300.7,156.7 301.8,157.6 302.9,158.5 304.0,159.4 305.1,160.2 306.2,161.1 307.3,162.0 308.4,162.9 309.6,163.7 310.7,164.6 311.8,165.5 312.9,166.3 314.0,167.2 315.1,168.0 316.2,168.8 317.3,169.6 318.4,170.4 319.6,171.2 320.7,172.0 321.8,172.7 322.9,173.5 324.0,174.2 325.1,174.9 326.2,175.6 327.3,176.2 328.4,176.9 329.6,177.5 330.7,178.1 331.8,178.7 332.9,179.2 334.0,179.8 335.1,180.3 336.2,180.8 337.3,181.2 338.4,181.6 339.6,182.0 340.7,182.4 341.8,182.8 342.9,183.1 344.0,183.4 345.1,183.6 346.2,183.8 347.3,184.0 348.4,184.2 349.6,184.3 350.7,184.5 351.8,184.5 352.9,184.6 354.0,184.6 355.1,184.6 356.2,184.5 357.3,184.5 358.4,184.3 359.6,184.2 360.7,184.0 361.8,183.8 362.9,183.6 364.0,183.4 365.1,183.1 366.2,182.8 367.3,182.4 368.4,182.0 369.6,181.6 370.7,181.2 371.8,180.8 372.9,180.3 374.0,179.8 375.1,179.2 376.2,178.7 377.3,178.1 378.4,177.5 379.6,176.9 380.7,176.2 381.8,175.6 382.9,174.9 384.0,174.2 385.1,173.5 386.2,172.7 387.3,172.0 388.4,171.2 389.6,170.4 390.7,169.6 391.8,168.8 392.9,168.0 394.0,167.2 395.1,166.3 396.2,165.5 397.3,164.6 398.4,163.7 399.6,162.9 400.7,162.0 401.8,161.1 402.9,160.2 404.0,159.4 405.1,158.5 406.2,157.6 407.3,156.7 408.4,155.8 409.6,155.0 410.7,154.1 411.8,153.3 412.9,152.4 414.0,151.6 415.1,150.7 416.2,149.9 417.3,149.1 418.4,148.3 419.6,147.5 420.7,146.7 421.8,146.0 422.9,145.2 424.0,144.5 425.1,143.8 426.2,143.1 427.3,142.5 428.4,141.8 429.6,141.2 430.7,140.6 431.8,140.0 432.9,139.5 434.0,138.9 435.1,138.4 436.2,138.0 437.3,137.5 438.4,137.1 439.6,136.7 440.7,136.3 441.8,136.0 442.9,135.6 444.0,135.4 445.1,135.1 446.2,134.9 447.3,134.7 448.4,134.5 449.6,134.4 450.7,134.3 451.8,134.2 452.9,134.1 454.0,134.1" fill="none" stroke="#059669" stroke-width="2.4"/>
<line x1="60" y1="28" x2="78" y2="28" stroke="#374151" stroke-width="2.6"/>
<text x="82" y="32" fill="#374151" font-size="11.5" font-family="sans-serif">total</text>
<line x1="119" y1="28" x2="137" y2="28" stroke="#2563eb" stroke-width="2.6"/>
<text x="141" y="32" fill="#374151" font-size="11.5" font-family="sans-serif">primary (1&#215;)</text>
<line x1="224" y1="28" x2="242" y2="28" stroke="#059669" stroke-width="2.6"/>
<text x="246" y="32" fill="#374151" font-size="11.5" font-family="sans-serif">secondary (2&#215;)</text>
<text x="254" y="308" fill="#6b7280" font-size="11.5" font-family="sans-serif" text-anchor="middle">crank angle &#952; (degrees)</text>
<text x="14" y="148" fill="#6b7280" font-size="11.5" font-family="sans-serif" text-anchor="middle" transform="rotate(-90 14 148)">F / (m r &#969;&#178;)</text>
<text x="54" y="290" fill="#6b7280" font-size="10.5" font-family="sans-serif">l/r = 3. The secondary runs twice per rev; so must a balance shaft.</text>
</svg>