<svg viewBox="0 0 370 322" width="100%" xmlns="http://www.w3.org/2000/svg" role="img" aria-label="Cam pitch profile for a cycloidal rise-dwell-fall-dwell programme">
<rect data-bg="1" x="0" y="0" width="370" height="322" rx="8" fill="#ffffff" stroke="#e5e7eb" stroke-width="1"/>
<circle cx="150.0" cy="150.0" r="77.1" fill="none" stroke="#9ca3af" stroke-width="1.4" stroke-dasharray="5 4"/>
<polyline points="227.1,150.0 227.1,147.3 227.0,144.6 226.8,141.9 226.6,139.2 226.3,136.5 226.1,133.8 225.8,131.1 225.6,128.3 225.3,125.5 225.1,122.7 224.9,119.7 224.7,116.7 224.5,113.7 224.3,110.5 224.1,107.2 223.8,103.9 223.4,100.5 223.0,96.9 222.5,93.3 221.9,89.7 221.1,85.9 220.2,82.2 219.1,78.4 217.9,74.6 216.4,70.9 214.7,67.2 212.8,63.5 210.7,60.0 208.4,56.6 205.8,53.3 203.0,50.2 200.1,47.3 196.9,44.6 193.6,42.1 190.1,39.9 186.4,37.9 182.7,36.1 178.8,34.5 174.8,33.3 170.8,32.2 166.7,31.4 162.5,30.7 158.4,30.3 154.2,30.1 150.0,30.0 145.8,30.1 141.6,30.3 137.5,30.7 133.3,31.2 129.2,31.8 125.1,32.6 121.0,33.6 116.9,34.6 112.9,35.9 109.0,37.2 105.0,38.7 101.2,40.4 97.4,42.1 93.7,44.0 90.0,46.1 86.4,48.2 82.9,50.5 79.5,52.9 76.1,55.4 72.9,58.1 69.7,60.8 66.6,63.7 63.7,66.6 60.8,69.7 58.1,72.9 55.4,76.1 52.9,79.5 50.5,82.9 48.2,86.4 46.1,90.0 44.0,93.7 42.1,97.4 40.4,101.2 38.7,105.0 37.2,109.0 35.9,112.9 34.6,116.9 33.6,121.0 32.6,125.1 31.8,129.2 31.2,133.3 30.7,137.5 30.3,141.6 30.1,145.8 30.0,150.0 30.1,154.2 30.3,158.4 30.7,162.5 31.4,166.7 32.2,170.8 33.3,174.8 34.5,178.8 36.1,182.7 37.9,186.4 39.9,190.1 42.1,193.6 44.6,196.9 47.3,200.1 50.2,203.0 53.3,205.8 56.6,208.4 60.0,210.7 63.5,212.8 67.2,214.7 70.9,216.4 74.6,217.9 78.4,219.1 82.2,220.2 85.9,221.1 89.7,221.9 93.3,222.5 96.9,223.0 100.5,223.4 103.9,223.8 107.2,224.1 110.5,224.3 113.7,224.5 116.7,224.7 119.7,224.9 122.7,225.1 125.5,225.3 128.3,225.6 131.1,225.8 133.8,226.1 136.5,226.3 139.2,226.6 141.9,226.8 144.6,227.0 147.3,227.1 150.0,227.1 152.7,227.1 155.4,227.0 158.1,226.7 160.7,226.4 163.4,226.0 166.0,225.5 168.7,224.9 171.3,224.2 173.8,223.4 176.4,222.5 178.9,221.5 181.4,220.5 183.8,219.3 186.2,218.1 188.6,216.8 190.9,215.4 193.1,214.0 195.3,212.4 197.5,210.8 199.6,209.1 201.6,207.3 203.6,205.5 205.5,203.6 207.3,201.6 209.1,199.6 210.8,197.5 212.4,195.3 214.0,193.1 215.4,190.9 216.8,188.6 218.1,186.2 219.3,183.8 220.5,181.4 221.5,178.9 222.5,176.4 223.4,173.8 224.2,171.3 224.9,168.7 225.5,166.0 226.0,163.4 226.4,160.7 226.7,158.1 227.0,155.4 227.1,152.7 227.1,150.0" fill="none" stroke="#d97706" stroke-width="2.6"/>
<line x1="150.0" y1="150.0" x2="227.1" y2="150.0" stroke="#6b7280" stroke-width="1" stroke-dasharray="2 3"/>
<text x="237.4" y="150.0" fill="#374151" font-size="11.5" font-family="sans-serif" text-anchor="middle" dominant-baseline="middle">0&#176;</text>
<line x1="150.0" y1="150.0" x2="150.0" y2="30.0" stroke="#6b7280" stroke-width="1" stroke-dasharray="2 3"/>
<text x="150.0" y="19.7" fill="#374151" font-size="11.5" font-family="sans-serif" text-anchor="middle" dominant-baseline="middle">90&#176;</text>
<line x1="150.0" y1="150.0" x2="30.0" y2="150.0" stroke="#6b7280" stroke-width="1" stroke-dasharray="2 3"/>
<text x="19.7" y="150.0" fill="#374151" font-size="11.5" font-family="sans-serif" text-anchor="middle" dominant-baseline="middle">180&#176;</text>
<line x1="150.0" y1="150.0" x2="150.0" y2="227.1" stroke="#6b7280" stroke-width="1" stroke-dasharray="2 3"/>
<text x="150.0" y="237.4" fill="#374151" font-size="11.5" font-family="sans-serif" text-anchor="middle" dominant-baseline="middle">270&#176;</text>
<circle cx="150.0" cy="150.0" r="3.5" fill="#374151"/>
<text x="177.0" y="144.0" fill="#9ca3af" font-size="11" font-family="sans-serif">base circle</text>
<text x="30" y="315" fill="#6b7280" font-size="11.5" font-family="sans-serif">Pitch curve R = R&#8347; + s(&#952;).  R&#8347; = 45, h = 25 mm.</text>
</svg>