<svg viewBox="0 0 470 300" width="100%" xmlns="http://www.w3.org/2000/svg" role="img" aria-label="Pressure angle versus cam angle for two base-circle radii">
<rect data-bg="1" x="0" y="0" width="470" height="300" rx="8" fill="#ffffff" stroke="#e5e7eb" stroke-width="1"/>
<rect x="48" y="42" width="406" height="212" fill="none" stroke="#9ca3af" stroke-width="1"/>
<line x1="48" y1="102.6" x2="454" y2="102.6" stroke="#374151" stroke-width="1" stroke-dasharray="5 3"/>
<text x="452" y="99.6" fill="#374151" font-size="10.5" font-family="sans-serif" text-anchor="end">30&#176; guide</text>
<polyline points="48.0,254.0 51.4,253.8 54.8,253.1 58.2,252.1 61.6,250.6 65.1,248.7 68.5,246.4 71.9,243.7 75.3,240.5 78.7,237.1 82.1,233.2 85.5,229.0 88.9,224.5 92.4,219.7 95.8,214.5 99.2,209.2 102.6,203.6 106.0,197.8 109.4,191.9 112.8,185.8 116.2,179.7 119.6,173.5 123.1,167.2 126.5,161.0 129.9,154.8 133.3,148.7 136.7,142.7 140.1,136.8 143.5,131.1 146.9,125.5 150.4,120.2 153.8,115.0 157.2,110.1 160.6,105.4 164.0,100.9 167.4,96.7 170.8,92.8 174.2,89.1 177.6,85.6 181.1,82.4 184.5,79.5 187.9,76.8 191.3,74.4 194.7,72.2 198.1,70.3 201.5,68.6 204.9,67.1 208.4,65.9 211.8,64.9 215.2,64.1 218.6,63.5 222.0,63.1 225.4,63.0 228.8,63.0 232.2,63.3 235.6,63.7 239.1,64.4 242.5,65.2 245.9,66.2 249.3,67.4 252.7,68.8 256.1,70.3 259.5,72.1 262.9,73.9 266.4,76.0 269.8,78.2 273.2,80.6 276.6,83.1 280.0,85.8 283.4,88.6 286.8,91.6 290.2,94.7 293.6,97.9 297.1,101.3 300.5,104.8 303.9,108.4 307.3,112.2 310.7,116.0 314.1,120.0 317.5,124.1 320.9,128.2 324.4,132.4 327.8,136.7 331.2,141.1 334.6,145.5 338.0,150.0 341.4,154.5 344.8,159.0 348.2,163.5 351.6,168.1 355.1,172.6 358.5,177.1 361.9,181.6 365.3,186.1 368.7,190.5 372.1,194.8 375.5,199.1 378.9,203.2 382.4,207.3 385.8,211.3 389.2,215.1 392.6,218.8 396.0,222.4 399.4,225.8 402.8,229.0 406.2,232.1 409.6,235.0 413.1,237.7 416.5,240.3 419.9,242.6 423.3,244.7 426.7,246.6 430.1,248.3 433.5,249.8 436.9,251.1 440.4,252.1 443.8,253.0 447.2,253.5 450.6,253.9 454.0,254.0" fill="none" stroke="#d97706" stroke-width="2.4"/>
<polyline points="48.0,254.0 51.4,253.9 54.8,253.4 58.2,252.7 61.6,251.7 65.1,250.5 68.5,248.9 71.9,247.1 75.3,245.0 78.7,242.7 82.1,240.1 85.5,237.3 88.9,234.2 92.4,231.0 95.8,227.5 99.2,223.9 102.6,220.1 106.0,216.1 109.4,212.0 112.8,207.8 116.2,203.4 119.6,199.0 123.1,194.6 126.5,190.1 129.9,185.5 133.3,181.0 136.7,176.5 140.1,172.0 143.5,167.6 146.9,163.3 150.4,159.0 153.8,154.9 157.2,150.8 160.6,146.9 164.0,143.2 167.4,139.6 170.8,136.1 174.2,132.8 177.6,129.7 181.1,126.8 184.5,124.0 187.9,121.5 191.3,119.1 194.7,116.9 198.1,114.9 201.5,113.1 204.9,111.5 208.4,110.1 211.8,108.8 215.2,107.8 218.6,106.9 222.0,106.3 225.4,105.8 228.8,105.5 232.2,105.4 235.6,105.4 239.1,105.7 242.5,106.1 245.9,106.6 249.3,107.4 252.7,108.2 256.1,109.3 259.5,110.5 262.9,111.9 266.4,113.4 269.8,115.0 273.2,116.8 276.6,118.8 280.0,120.9 283.4,123.1 286.8,125.4 290.2,127.9 293.6,130.4 297.1,133.1 300.5,135.9 303.9,138.8 307.3,141.8 310.7,144.9 314.1,148.0 317.5,151.3 320.9,154.6 324.4,158.0 327.8,161.4 331.2,164.9 334.6,168.4 338.0,172.0 341.4,175.5 344.8,179.1 348.2,182.7 351.6,186.4 355.1,189.9 358.5,193.5 361.9,197.1 365.3,200.6 368.7,204.1 372.1,207.5 375.5,210.8 378.9,214.1 382.4,217.3 385.8,220.4 389.2,223.4 392.6,226.3 396.0,229.1 399.4,231.8 402.8,234.4 406.2,236.8 409.6,239.1 413.1,241.2 416.5,243.2 419.9,245.0 423.3,246.7 426.7,248.2 430.1,249.6 433.5,250.7 436.9,251.7 440.4,252.5 443.8,253.2 447.2,253.6 450.6,253.9 454.0,254.0" fill="none" stroke="#059669" stroke-width="2.4"/>
<line x1="54" y1="28" x2="72" y2="28" stroke="#d97706" stroke-width="2.6"/>
<text x="76" y="32" fill="#374151" font-size="11.5" font-family="sans-serif">R_b = 30 mm</text>
<line x1="153" y1="28" x2="171" y2="28" stroke="#059669" stroke-width="2.6"/>
<text x="175" y="32" fill="#374151" font-size="11.5" font-family="sans-serif">R_b = 45 mm</text>
<text x="251" y="292" fill="#6b7280" font-size="11.5" font-family="sans-serif" text-anchor="middle">cam angle into the rise (deg)</text>
<text x="14" y="148" fill="#6b7280" font-size="11.5" font-family="sans-serif" text-anchor="middle" transform="rotate(-90 14 148)">pressure angle &#966; (deg)</text>
<text x="48" y="274" fill="#6b7280" font-size="10.5" font-family="sans-serif">A larger base circle lowers the pressure angle below the 30 degree guide.</text>
</svg>