<svg viewBox="0 0 470 300" width="100%" xmlns="http://www.w3.org/2000/svg" role="img" aria-label="Cycloidal rise displacement, velocity and acceleration diagram">
<rect data-bg="1" x="0" y="0" width="470" height="300" rx="8" fill="#ffffff" stroke="#e5e7eb" stroke-width="1"/>
<rect x="48" y="42" width="406" height="212" fill="none" stroke="#9ca3af" stroke-width="1"/>
<line x1="48" y1="148.0" x2="454" y2="148.0" stroke="#9ca3af" stroke-width="1" stroke-dasharray="3 3"/>
<polyline points="48.0,148.0 51.4,148.0 54.8,148.0 58.2,148.0 61.6,148.0 65.1,148.0 68.5,147.9 71.9,147.9 75.3,147.8 78.7,147.7 82.1,147.6 85.5,147.5 88.9,147.4 92.4,147.2 95.8,147.0 99.2,146.8 102.6,146.6 106.0,146.3 109.4,146.0 112.8,145.7 116.2,145.3 119.6,144.9 123.1,144.4 126.5,143.9 129.9,143.4 133.3,142.8 136.7,142.2 140.1,141.6 143.5,140.9 146.9,140.2 150.4,139.4 153.8,138.6 157.2,137.8 160.6,136.9 164.0,136.0 167.4,135.0 170.8,134.0 174.2,132.9 177.6,131.9 181.1,130.7 184.5,129.6 187.9,128.4 191.3,127.2 194.7,125.9 198.1,124.6 201.5,123.3 204.9,122.0 208.4,120.6 211.8,119.2 215.2,117.8 218.6,116.3 222.0,114.9 225.4,113.4 228.8,111.9 232.2,110.4 235.6,108.9 239.1,107.3 242.5,105.8 245.9,104.2 249.3,102.7 252.7,101.1 256.1,99.6 259.5,98.0 262.9,96.5 266.4,95.0 269.8,93.5 273.2,91.9 276.6,90.4 280.0,89.0 283.4,87.5 286.8,86.1 290.2,84.6 293.6,83.2 297.1,81.9 300.5,80.5 303.9,79.2 307.3,77.9 310.7,76.7 314.1,75.4 317.5,74.2 320.9,73.1 324.4,72.0 327.8,70.9 331.2,69.8 334.6,68.8 338.0,67.9 341.4,66.9 344.8,66.0 348.2,65.2 351.6,64.4 355.1,63.6 358.5,62.9 361.9,62.2 365.3,61.6 368.7,61.0 372.1,60.4 375.5,59.9 378.9,59.4 382.4,59.0 385.8,58.5 389.2,58.2 392.6,57.8 396.0,57.5 399.4,57.2 402.8,57.0 406.2,56.8 409.6,56.6 413.1,56.4 416.5,56.3 419.9,56.2 423.3,56.1 426.7,56.0 430.1,55.9 433.5,55.9 436.9,55.9 440.4,55.8 443.8,55.8 447.2,55.8 450.6,55.8 454.0,55.8" fill="none" stroke="#2563eb" stroke-width="2.4"/>
<polyline points="48.0,148.0 51.4,147.9 54.8,147.7 58.2,147.4 61.6,147.0 65.1,146.4 68.5,145.7 71.9,144.9 75.3,143.9 78.7,142.9 82.1,141.7 85.5,140.4 88.9,139.1 92.4,137.6 95.8,136.0 99.2,134.3 102.6,132.5 106.0,130.6 109.4,128.7 112.8,126.7 116.2,124.6 119.6,122.5 123.1,120.2 126.5,118.0 129.9,115.7 133.3,113.4 136.7,111.0 140.1,108.6 143.5,106.2 146.9,103.7 150.4,101.3 153.8,98.9 157.2,96.5 160.6,94.0 164.0,91.7 167.4,89.3 170.8,87.0 174.2,84.7 177.6,82.5 181.1,80.3 184.5,78.2 187.9,76.1 191.3,74.1 194.7,72.2 198.1,70.4 201.5,68.7 204.9,67.0 208.4,65.5 211.8,64.1 215.2,62.7 218.6,61.5 222.0,60.4 225.4,59.4 228.8,58.5 232.2,57.8 235.6,57.1 239.1,56.6 242.5,56.2 245.9,56.0 249.3,55.8 252.7,55.8 256.1,56.0 259.5,56.2 262.9,56.6 266.4,57.1 269.8,57.8 273.2,58.5 276.6,59.4 280.0,60.4 283.4,61.5 286.8,62.7 290.2,64.1 293.6,65.5 297.1,67.0 300.5,68.7 303.9,70.4 307.3,72.2 310.7,74.1 314.1,76.1 317.5,78.2 320.9,80.3 324.4,82.5 327.8,84.7 331.2,87.0 334.6,89.3 338.0,91.7 341.4,94.0 344.8,96.5 348.2,98.9 351.6,101.3 355.1,103.7 358.5,106.2 361.9,108.6 365.3,111.0 368.7,113.4 372.1,115.7 375.5,118.0 378.9,120.2 382.4,122.5 385.8,124.6 389.2,126.7 392.6,128.7 396.0,130.6 399.4,132.5 402.8,134.3 406.2,136.0 409.6,137.6 413.1,139.1 416.5,140.4 419.9,141.7 423.3,142.9 426.7,143.9 430.1,144.9 433.5,145.7 436.9,146.4 440.4,147.0 443.8,147.4 447.2,147.7 450.6,147.9 454.0,148.0" fill="none" stroke="#059669" stroke-width="2.4"/>
<polyline points="48.0,148.0 51.4,143.1 54.8,138.3 58.2,133.5 61.6,128.7 65.1,123.9 68.5,119.3 71.9,114.7 75.3,110.2 78.7,105.8 82.1,101.6 85.5,97.4 88.9,93.4 92.4,89.6 95.8,85.9 99.2,82.4 102.6,79.1 106.0,75.9 109.4,73.0 112.8,70.3 116.2,67.8 119.6,65.5 123.1,63.4 126.5,61.6 129.9,60.0 133.3,58.7 136.7,57.6 140.1,56.8 143.5,56.2 146.9,55.9 150.4,55.8 153.8,56.0 157.2,56.5 160.6,57.2 164.0,58.1 167.4,59.3 170.8,60.8 174.2,62.5 177.6,64.4 181.1,66.6 184.5,69.0 187.9,71.6 191.3,74.4 194.7,77.5 198.1,80.7 201.5,84.1 204.9,87.7 208.4,91.5 211.8,95.4 215.2,99.5 218.6,103.7 222.0,108.0 225.4,112.4 228.8,117.0 232.2,121.6 235.6,126.3 239.1,131.1 242.5,135.9 245.9,140.7 249.3,145.6 252.7,150.4 256.1,155.3 259.5,160.1 262.9,164.9 266.4,169.7 269.8,174.4 273.2,179.0 276.6,183.6 280.0,188.0 283.4,192.3 286.8,196.5 290.2,200.6 293.6,204.5 297.1,208.3 300.5,211.9 303.9,215.3 307.3,218.5 310.7,221.6 314.1,224.4 317.5,227.0 320.9,229.4 324.4,231.6 327.8,233.5 331.2,235.2 334.6,236.7 338.0,237.9 341.4,238.8 344.8,239.5 348.2,240.0 351.6,240.2 355.1,240.1 358.5,239.8 361.9,239.2 365.3,238.4 368.7,237.3 372.1,236.0 375.5,234.4 378.9,232.6 382.4,230.5 385.8,228.2 389.2,225.7 392.6,223.0 396.0,220.1 399.4,216.9 402.8,213.6 406.2,210.1 409.6,206.4 413.1,202.6 416.5,198.6 419.9,194.4 423.3,190.2 426.7,185.8 430.1,181.3 433.5,176.7 436.9,172.1 440.4,167.3 443.8,162.5 447.2,157.7 450.6,152.9 454.0,148.0" fill="none" stroke="#d97706" stroke-width="2.4"/>
<line x1="54" y1="28" x2="72" y2="28" stroke="#2563eb" stroke-width="2.6"/>
<text x="76" y="32" fill="#374151" font-size="11.5" font-family="sans-serif">s / h</text>
<line x1="113" y1="28" x2="131" y2="28" stroke="#059669" stroke-width="2.6"/>
<text x="135" y="32" fill="#374151" font-size="11.5" font-family="sans-serif">v / v_max</text>
<line x1="198" y1="28" x2="216" y2="28" stroke="#d97706" stroke-width="2.6"/>
<text x="220" y="32" fill="#374151" font-size="11.5" font-family="sans-serif">a / a_max</text>
<text x="251" y="292" fill="#6b7280" font-size="11.5" font-family="sans-serif" text-anchor="middle">cam angle &#952; / &#946;</text>
<text x="14" y="148" fill="#6b7280" font-size="11.5" font-family="sans-serif" text-anchor="middle" transform="rotate(-90 14 148)">normalised</text>
<text x="48" y="274" fill="#6b7280" font-size="10.5" font-family="sans-serif">Cycloidal rise: s, v and a are all smooth and begin and end at zero.</text>
</svg>