<svg viewBox="0 0 470 300" width="100%" xmlns="http://www.w3.org/2000/svg" role="img" aria-label="Scissor-lift actuator force versus angle">
<rect data-bg="1" x="0" y="0" width="470" height="300" rx="8" fill="#ffffff" stroke="#e5e7eb" stroke-width="1"/>
<rect x="48" y="42" width="406" height="212" fill="none" stroke="#9ca3af" stroke-width="1"/>
<polyline points="93.1,53.6 96.0,65.7 98.8,76.5 101.6,86.2 104.5,94.9 107.3,102.8 110.2,109.9 113.0,116.5 115.9,122.5 118.7,128.1 121.5,133.2 124.4,137.9 127.2,142.4 130.1,146.5 132.9,150.3 135.8,154.0 138.6,157.4 141.4,160.6 144.3,163.6 147.1,166.4 150.0,169.1 152.8,171.7 155.7,174.1 158.5,176.5 161.3,178.7 164.2,180.8 167.0,182.8 169.9,184.7 172.7,186.5 175.6,188.3 178.4,190.0 181.2,191.6 184.1,193.2 186.9,194.7 189.8,196.2 192.6,197.6 195.5,198.9 198.3,200.2 201.2,201.5 204.0,202.7 206.8,203.9 209.7,205.1 212.5,206.2 215.4,207.3 218.2,208.3 221.1,209.4 223.9,210.4 226.7,211.3 229.6,212.3 232.4,213.2 235.3,214.1 238.1,215.0 241.0,215.8 243.8,216.6 246.6,217.5 249.5,218.2 252.3,219.0 255.2,219.8 258.0,220.5 260.9,221.3 263.7,222.0 266.5,222.7 269.4,223.4 272.2,224.0 275.1,224.7 277.9,225.4 280.8,226.0 283.6,226.6 286.4,227.2 289.3,227.8 292.1,228.4 295.0,229.0 297.8,229.6 300.7,230.2 303.5,230.7 306.3,231.3 309.2,231.8 312.0,232.4 314.9,232.9 317.7,233.4 320.6,233.9 323.4,234.5 326.2,235.0 329.1,235.5 331.9,236.0 334.8,236.4 337.6,236.9 340.5,237.4 343.3,237.9 346.2,238.3 349.0,238.8 351.8,239.3 354.7,239.7 357.5,240.2 360.4,240.6 363.2,241.1 366.1,241.5 368.9,241.9 371.7,242.4 374.6,242.8 377.4,243.2 380.3,243.6 383.1,244.1 386.0,244.5 388.8,244.9 391.6,245.3 394.5,245.7 397.3,246.1 400.2,246.5 403.0,246.9 405.9,247.3 408.7,247.7 411.5,248.1 414.4,248.5 417.2,248.9 420.1,249.3 422.9,249.7 425.8,250.1 428.6,250.5 431.4,250.9" fill="none" stroke="#059669" stroke-width="2.4"/>
<line x1="54" y1="28" x2="72" y2="28" stroke="#059669" stroke-width="2.6"/>
<text x="76" y="32" fill="#374151" font-size="11.5" font-family="sans-serif">actuator force</text>
<text x="251" y="292" fill="#6b7280" font-size="11.5" font-family="sans-serif" text-anchor="middle">scissor angle &#952; (deg)</text>
<text x="14" y="148" fill="#6b7280" font-size="11.5" font-family="sans-serif" text-anchor="middle" transform="rotate(-90 14 148)">actuator force (N)</text>
<text x="48" y="274" fill="#6b7280" font-size="10.5" font-family="sans-serif">Scissor actuator force F = W cot&#952; (W = 500 N): it spikes as the lift nears flat.</text>
</svg>