<svg viewBox="0 0 470 316" width="100%" xmlns="http://www.w3.org/2000/svg" role="img" aria-label="Four-bar transmission angle over a full crank rotation, with the zones below the 40 degree guide shaded">
<rect data-bg="1" x="0" y="0" width="470" height="316" rx="8" fill="#ffffff" stroke="#e5e7eb" stroke-width="1"/>
<rect x="54.0" y="42" width="51.1" height="212" fill="#d97706" opacity="0.10"/>
<rect x="402.9" y="42" width="51.1" height="212" fill="#d97706" opacity="0.10"/>
<rect x="54" y="42" width="400" height="212" fill="none" stroke="#9ca3af" stroke-width="1"/>
<line x1="54.0" y1="254" x2="54.0" y2="258" stroke="#9ca3af" stroke-width="1"/>
<text x="54.0" y="270" fill="#6b7280" font-size="10.5" font-family="sans-serif" text-anchor="middle">0</text>
<line x1="104.0" y1="254" x2="104.0" y2="258" stroke="#9ca3af" stroke-width="1"/>
<line x1="104.0" y1="42" x2="104.0" y2="254" stroke="#9ca3af" stroke-width="0.5" stroke-dasharray="2 4"/>
<text x="104.0" y="270" fill="#6b7280" font-size="10.5" font-family="sans-serif" text-anchor="middle">45</text>
<line x1="154.0" y1="254" x2="154.0" y2="258" stroke="#9ca3af" stroke-width="1"/>
<line x1="154.0" y1="42" x2="154.0" y2="254" stroke="#9ca3af" stroke-width="0.5" stroke-dasharray="2 4"/>
<text x="154.0" y="270" fill="#6b7280" font-size="10.5" font-family="sans-serif" text-anchor="middle">90</text>
<line x1="204.0" y1="254" x2="204.0" y2="258" stroke="#9ca3af" stroke-width="1"/>
<line x1="204.0" y1="42" x2="204.0" y2="254" stroke="#9ca3af" stroke-width="0.5" stroke-dasharray="2 4"/>
<text x="204.0" y="270" fill="#6b7280" font-size="10.5" font-family="sans-serif" text-anchor="middle">135</text>
<line x1="254.0" y1="254" x2="254.0" y2="258" stroke="#9ca3af" stroke-width="1"/>
<line x1="254.0" y1="42" x2="254.0" y2="254" stroke="#9ca3af" stroke-width="0.5" stroke-dasharray="2 4"/>
<text x="254.0" y="270" fill="#6b7280" font-size="10.5" font-family="sans-serif" text-anchor="middle">180</text>
<line x1="304.0" y1="254" x2="304.0" y2="258" stroke="#9ca3af" stroke-width="1"/>
<line x1="304.0" y1="42" x2="304.0" y2="254" stroke="#9ca3af" stroke-width="0.5" stroke-dasharray="2 4"/>
<text x="304.0" y="270" fill="#6b7280" font-size="10.5" font-family="sans-serif" text-anchor="middle">225</text>
<line x1="354.0" y1="254" x2="354.0" y2="258" stroke="#9ca3af" stroke-width="1"/>
<line x1="354.0" y1="42" x2="354.0" y2="254" stroke="#9ca3af" stroke-width="0.5" stroke-dasharray="2 4"/>
<text x="354.0" y="270" fill="#6b7280" font-size="10.5" font-family="sans-serif" text-anchor="middle">270</text>
<line x1="404.0" y1="254" x2="404.0" y2="258" stroke="#9ca3af" stroke-width="1"/>
<line x1="404.0" y1="42" x2="404.0" y2="254" stroke="#9ca3af" stroke-width="0.5" stroke-dasharray="2 4"/>
<text x="404.0" y="270" fill="#6b7280" font-size="10.5" font-family="sans-serif" text-anchor="middle">315</text>
<line x1="454.0" y1="254" x2="454.0" y2="258" stroke="#9ca3af" stroke-width="1"/>
<line x1="454.0" y1="42" x2="454.0" y2="254" stroke="#9ca3af" stroke-width="0.5" stroke-dasharray="2 4"/>
<text x="454.0" y="270" fill="#6b7280" font-size="10.5" font-family="sans-serif" text-anchor="middle">360</text>
<line x1="50" y1="254.0" x2="54" y2="254.0" stroke="#9ca3af" stroke-width="1"/>
<text x="47" y="257.5" fill="#6b7280" font-size="10.5" font-family="sans-serif" text-anchor="end">0</text>
<line x1="50" y1="218.7" x2="54" y2="218.7" stroke="#9ca3af" stroke-width="1"/>
<text x="47" y="222.2" fill="#6b7280" font-size="10.5" font-family="sans-serif" text-anchor="end">15</text>
<line x1="50" y1="183.3" x2="54" y2="183.3" stroke="#9ca3af" stroke-width="1"/>
<text x="47" y="186.8" fill="#6b7280" font-size="10.5" font-family="sans-serif" text-anchor="end">30</text>
<line x1="50" y1="148.0" x2="54" y2="148.0" stroke="#9ca3af" stroke-width="1"/>
<text x="47" y="151.5" fill="#6b7280" font-size="10.5" font-family="sans-serif" text-anchor="end">45</text>
<line x1="50" y1="112.7" x2="54" y2="112.7" stroke="#9ca3af" stroke-width="1"/>
<text x="47" y="116.2" fill="#6b7280" font-size="10.5" font-family="sans-serif" text-anchor="end">60</text>
<line x1="50" y1="77.3" x2="54" y2="77.3" stroke="#9ca3af" stroke-width="1"/>
<text x="47" y="80.8" fill="#6b7280" font-size="10.5" font-family="sans-serif" text-anchor="end">75</text>
<line x1="50" y1="42.0" x2="54" y2="42.0" stroke="#9ca3af" stroke-width="1"/>
<text x="47" y="45.5" fill="#6b7280" font-size="10.5" font-family="sans-serif" text-anchor="end">90</text>
<line x1="54" y1="159.8" x2="454" y2="159.8" stroke="#374151" stroke-width="1" stroke-dasharray="5 3"/>
<text x="452" y="156.8" fill="#374151" font-size="10.5" font-family="sans-serif" text-anchor="end">40&#176; guide</text>
<polyline points="54.0,191.9 57.3,191.7 60.7,191.2 64.0,190.3 67.3,189.1 70.7,187.7 74.0,185.9 77.3,183.9 80.7,181.7 84.0,179.2 87.3,176.6 90.7,173.8 94.0,170.9 97.3,167.8 100.7,164.7 104.0,161.4 107.3,158.1 110.7,154.7 114.0,151.3 117.3,147.8 120.7,144.3 124.0,140.8 127.3,137.3 130.7,133.7 134.0,130.2 137.3,126.7 140.7,123.2 144.0,119.7 147.3,116.2 150.7,112.8 154.0,109.4 157.3,106.1 160.7,102.8 164.0,99.6 167.3,96.4 170.7,93.3 174.0,90.3 177.3,87.4 180.7,84.5 184.0,81.7 187.3,79.0 190.7,76.4 194.0,73.9 197.3,71.5 200.7,69.2 204.0,67.0 207.3,65.0 210.7,63.1 214.0,61.2 217.3,59.6 220.7,58.0 224.0,56.6 227.3,55.3 230.7,54.2 234.0,53.2 237.3,52.4 240.7,51.7 244.0,51.1 247.3,50.7 250.7,50.5 254.0,50.4 257.3,50.5 260.7,50.7 264.0,51.1 267.3,51.7 270.7,52.4 274.0,53.2 277.3,54.2 280.7,55.3 284.0,56.6 287.3,58.0 290.7,59.6 294.0,61.2 297.3,63.1 300.7,65.0 304.0,67.0 307.3,69.2 310.7,71.5 314.0,73.9 317.3,76.4 320.7,79.0 324.0,81.7 327.3,84.5 330.7,87.4 334.0,90.3 337.3,93.3 340.7,96.4 344.0,99.6 347.3,102.8 350.7,106.1 354.0,109.4 357.3,112.8 360.7,116.2 364.0,119.7 367.3,123.2 370.7,126.7 374.0,130.2 377.3,133.7 380.7,137.3 384.0,140.8 387.3,144.3 390.7,147.8 394.0,151.3 397.3,154.7 400.7,158.1 404.0,161.4 407.3,164.7 410.7,167.8 414.0,170.9 417.3,173.8 420.7,176.6 424.0,179.2 427.3,181.7 430.7,183.9 434.0,185.9 437.3,187.7 440.7,189.1 444.0,190.3 447.3,191.2 450.7,191.7" fill="none" stroke="#059669" stroke-width="2.4"/>
<line x1="60" y1="28" x2="78" y2="28" stroke="#059669" stroke-width="2.6"/>
<text x="82" y="32" fill="#374151" font-size="11.5" font-family="sans-serif">transmission angle</text>
<text x="254" y="308" fill="#6b7280" font-size="11.5" font-family="sans-serif" text-anchor="middle">crank angle &#952;&#8322; (deg)</text>
<text x="14" y="148" fill="#6b7280" font-size="11.5" font-family="sans-serif" text-anchor="middle" transform="rotate(-90 14 148)">transmission angle &#956; (deg)</text>
<text x="54" y="290" fill="#6b7280" font-size="10.5" font-family="sans-serif">Transmission angle dips to about 26 deg twice per turn (poor-force zones).</text>
</svg>