<svg viewBox="0 0 470 300" width="100%" xmlns="http://www.w3.org/2000/svg" role="img" aria-label="Four-bar transmission angle over a full crank rotation">
<rect data-bg="1" x="0" y="0" width="470" height="300" rx="8" fill="#ffffff" stroke="#e5e7eb" stroke-width="1"/>
<rect x="48" y="42" width="406" height="212" fill="none" stroke="#9ca3af" stroke-width="1"/>
<line x1="48" y1="159.8" x2="454" y2="159.8" stroke="#374151" stroke-width="1" stroke-dasharray="5 3"/>
<text x="452" y="156.8" fill="#374151" font-size="10.5" font-family="sans-serif" text-anchor="end">40&#176; guide</text>
<polyline points="48.0,191.9 51.4,191.7 54.8,191.2 58.1,190.3 61.5,189.1 64.9,187.7 68.3,185.9 71.7,183.9 75.1,181.7 78.5,179.2 81.8,176.6 85.2,173.8 88.6,170.9 92.0,167.8 95.4,164.7 98.8,161.4 102.1,158.1 105.5,154.7 108.9,151.3 112.3,147.8 115.7,144.3 119.0,140.8 122.4,137.3 125.8,133.7 129.2,130.2 132.6,126.7 136.0,123.2 139.4,119.7 142.7,116.2 146.1,112.8 149.5,109.4 152.9,106.1 156.3,102.8 159.7,99.6 163.0,96.4 166.4,93.3 169.8,90.3 173.2,87.4 176.6,84.5 180.0,81.7 183.3,79.0 186.7,76.4 190.1,73.9 193.5,71.5 196.9,69.2 200.2,67.0 203.6,65.0 207.0,63.1 210.4,61.2 213.8,59.6 217.2,58.0 220.5,56.6 223.9,55.3 227.3,54.2 230.7,53.2 234.1,52.4 237.5,51.7 240.8,51.1 244.2,50.7 247.6,50.5 251.0,50.4 254.4,50.5 257.8,50.7 261.1,51.1 264.5,51.7 267.9,52.4 271.3,53.2 274.7,54.2 278.1,55.3 281.4,56.6 284.8,58.0 288.2,59.6 291.6,61.2 295.0,63.1 298.4,65.0 301.8,67.0 305.1,69.2 308.5,71.5 311.9,73.9 315.3,76.4 318.7,79.0 322.1,81.7 325.4,84.5 328.8,87.4 332.2,90.3 335.6,93.3 339.0,96.4 342.3,99.6 345.7,102.8 349.1,106.1 352.5,109.4 355.9,112.8 359.3,116.2 362.7,119.7 366.0,123.2 369.4,126.7 372.8,130.2 376.2,133.7 379.6,137.3 382.9,140.8 386.3,144.3 389.7,147.8 393.1,151.3 396.5,154.7 399.9,158.1 403.2,161.4 406.6,164.7 410.0,167.8 413.4,170.9 416.8,173.8 420.2,176.6 423.6,179.2 426.9,181.7 430.3,183.9 433.7,185.9 437.1,187.7 440.5,189.1 443.8,190.3 447.2,191.2 450.6,191.7" fill="none" stroke="#059669" stroke-width="2.4"/>
<line x1="54" y1="28" x2="72" y2="28" stroke="#059669" stroke-width="2.6"/>
<text x="76" y="32" fill="#374151" font-size="11.5" font-family="sans-serif">transmission angle</text>
<text x="251" y="292" fill="#6b7280" font-size="11.5" font-family="sans-serif" text-anchor="middle">crank angle &#952;&#8322; (deg)</text>
<text x="14" y="148" fill="#6b7280" font-size="11.5" font-family="sans-serif" text-anchor="middle" transform="rotate(-90 14 148)">transmission angle &#956; (deg)</text>
<text x="48" y="274" fill="#6b7280" font-size="10.5" font-family="sans-serif">Transmission angle dips to about 26 deg twice per turn (poor-force zones).</text>
</svg>